# xmcd
# 
# Track frame offsets:
#     150
#     12237
#     24225
#     37237
#     49437
#     64875
#     77412
#     95625
#     111262
#     123350
#     138225
#     152050
#     170450
#     186262
#     203687
#     217437
#     233900
#     249487
# 
# Disc length: 3614
# 
# Revision: 2
# Processed by: cddbd v1.5.2PL0 Copyright (c) Steve Scherf et al.
# Submitted via: BonkEnc v1.0
# 
DISCID=020e1c12
DTITLE=Various Artist - Goldene Zeiten
DYEAR=0
DGENRE=
TTITLE0=Ronny - Oh my Darling
TTITLE1=Drafi Deutscher - Mormor, Stein und Eisen bricht
TTITLE2=France Gall - A Banda
TTITLE3=Karel Gott - Weisst Du wohin
TTITLE4=Roy Black and Anita - Schön ist es auf der Welt zu sein
TTITLE5=Wum s gesang - Ich wünsch mir ne kleine Mietzekatze
TTITLE6=Michael Holm - Tränen lügen nicht
TTITLE7=Howard Carpendale - Deine Spuren im Sand
TTITLE8=Tony Holiday - Tanze Samba mit mir
TTITLE9=Bernd Clüver - Der Junge mit der Mundharmonika
TTITLE10=Dschinghis Khan - Dschingis Khan
TTITLE11=Roland Kaiser - Santa Maria
TTITLE12=Andy Borg - Adios Amor
TTITLE13=Nino de Angelo - Jenseits von Eden
TTITLE14=Nicole - Ein bisschen Frieden
TTITLE15=Matthias Reim - Verdammt ich lieb Dich
TTITLE16=Danyel Gerard - Butterfly
TTITLE17=Jonny Hill - Ruf Teddybär Eins-Vier
EXTD=
EXTT0=Ronny
EXTT1=Drafi Deutscher
EXTT2=France Gall
EXTT3=Karel Gott
EXTT4=Roy Black and Anita
EXTT5=Wum s Gesang
EXTT6=Michael Holm
EXTT7=Howard Carpendale
EXTT8=Tony Holiday
EXTT9=Bernd Cl ver
EXTT10=Dschingis Khan
EXTT11=Roland Kaiser
EXTT12=Andy Borg
EXTT13=Nino de Angelo
EXTT14=Nicole
EXTT15=Matthias Reim
EXTT16=Danyel Gerard
EXTT17=Johnny Hill
PLAYORDER=
